<?xml version="1.0" encoding="UTF-8" standalone="no"?>
<svg
   id="a"
   width="560"
   height="125"
   viewBox="0 0 560 125"
   version="1.1"
   sodipodi:docname="OrcaSlicer_about_dark.svg"
   inkscape:version="1.4 (e7c3feb1, 2024-10-09)"
   xmlns:inkscape="http://www.inkscape.org/namespaces/inkscape"
   xmlns:sodipodi="http://sodipodi.sourceforge.net/DTD/sodipodi-0.dtd"
   xmlns:xlink="http://www.w3.org/1999/xlink"
   xmlns="http://www.w3.org/2000/svg"
   xmlns:svg="http://www.w3.org/2000/svg">
  <defs
     id="defs11">
    <linearGradient
       inkscape:collect="always"
       xlink:href="#linearGradient22"
       id="linearGradient23"
       x1="132.62756"
       y1="84.004227"
       x2="32.046196"
       y2="91.221611"
       gradientUnits="userSpaceOnUse"
       gradientTransform="matrix(3.7795276,0,0,3.7795276,55.088246,125.98025)" />
    <linearGradient
       id="linearGradient22"
       inkscape:collect="always">
      <stop
         style="stop-color:#3a2d64;stop-opacity:1;"
         offset="0"
         id="stop22" />
      <stop
         style="stop-color:#ce84b7;stop-opacity:1;"
         offset="1"
         id="stop23" />
    </linearGradient>
    <linearGradient
       inkscape:collect="always"
       xlink:href="#linearGradient13"
       id="linearGradient14"
       x1="141.89169"
       y1="80.502739"
       x2="134.53595"
       y2="115.85968"
       gradientUnits="userSpaceOnUse"
       gradientTransform="matrix(3.7795276,0,0,3.7795276,55.088246,125.98025)" />
    <linearGradient
       id="linearGradient13"
       inkscape:collect="always">
      <stop
         style="stop-color:#393166;stop-opacity:1;"
         offset="0"
         id="stop13" />
      <stop
         style="stop-color:#c986b6;stop-opacity:1;"
         offset="1"
         id="stop14" />
    </linearGradient>
    <linearGradient
       inkscape:collect="always"
       xlink:href="#linearGradient13"
       id="linearGradient17"
       gradientUnits="userSpaceOnUse"
       x1="141.89169"
       y1="80.502739"
       x2="134.53595"
       y2="115.85968"
       gradientTransform="matrix(3.7795276,0,0,3.7795276,-809.11429,-799.60583)" />
    <linearGradient
       inkscape:collect="always"
       xlink:href="#linearGradient13"
       id="linearGradient18"
       gradientUnits="userSpaceOnUse"
       gradientTransform="matrix(3.7786618,0,0,3.7804131,111.85021,-741.77781)"
       x1="141.89169"
       y1="80.502739"
       x2="134.53595"
       y2="115.85968" />
    <linearGradient
       id="linearGradient4"
       inkscape:collect="always"
       gradientTransform="matrix(2.2186031,0,0,0.45073407,0,-49.731068)"
       x1="143.7492"
       y1="349.79248"
       x2="571.10465"
       y2="349.79248"
       gradientUnits="userSpaceOnUse">
      <stop
         style="stop-color:#393166;stop-opacity:1;"
         offset="0"
         id="stop3" />
      <stop
         style="stop-color:#c986b6;stop-opacity:1;"
         offset="1"
         id="stop4" />
    </linearGradient>
    <linearGradient
       inkscape:collect="always"
       xlink:href="#linearGradient13"
       id="linearGradient19"
       gradientUnits="userSpaceOnUse"
       gradientTransform="matrix(3.7795276,0,0,3.7795276,-839.64169,-768.83679)"
       x1="141.89169"
       y1="80.502739"
       x2="134.53595"
       y2="115.85968" />
    <linearGradient
       inkscape:collect="always"
       xlink:href="#linearGradient3"
       id="linearGradient7"
       x1="361.21494"
       y1="214.90002"
       x2="1257.3937"
       y2="228.61705"
       gradientUnits="userSpaceOnUse" />
    <linearGradient
       id="linearGradient3"
       inkscape:collect="always">
      <stop
         style="stop-color:#3d3067;stop-opacity:1;"
         offset="0"
         id="stop7" />
      <stop
         style="stop-color:#c07eb0;stop-opacity:0.96078432;"
         offset="1"
         id="stop8" />
    </linearGradient>
  </defs>
  <sodipodi:namedview
     id="namedview11"
     pagecolor="#ffffff"
     bordercolor="#000000"
     borderopacity="0.25"
     inkscape:showpageshadow="2"
     inkscape:pageopacity="0.0"
     inkscape:pagecheckerboard="0"
     inkscape:deskcolor="#d1d1d1"
     inkscape:zoom="0.89257545"
     inkscape:cx="198.30256"
     inkscape:cy="228.55211"
     inkscape:window-width="1200"
     inkscape:window-height="1027"
     inkscape:window-x="0"
     inkscape:window-y="25"
     inkscape:window-maximized="0"
     inkscape:current-layer="g4" />
  <g
     id="g4"
     transform="matrix(0.16086524,0,0,0.16086524,42.960357,29.560142)">
    <g
       id="g1"
       transform="matrix(0.99056304,0,0,0.99056304,-355.62296,-262.1387)"
       style="display:inline">
      <path
         style="display:inline;fill:url(#linearGradient23);stroke-width:3.77953"
         d="m 214.43023,679.83449 c 0,-0.192 1.34004,-2.12677 2.97787,-4.29947 1.63783,-2.17266 5.23947,-7.02444 8.00365,-10.78175 2.76417,-3.7573 8.10616,-10.96055 11.87108,-16.00728 3.76492,-5.04673 8.11188,-10.9618 9.65991,-13.14459 1.54803,-2.18283 4.27205,-5.99282 6.05339,-8.46667 1.78133,-2.47385 6.52923,-9.14136 10.55088,-14.81666 4.02165,-5.67534 8.21325,-11.56891 9.31467,-13.09689 1.10141,-1.52795 3.48434,-4.86172 5.29538,-7.40833 1.81104,-2.54661 5.03096,-7.0512 7.15538,-10.01019 2.12442,-2.95899 4.57695,-6.3933 5.45008,-7.63174 0.87312,-1.23847 3.37343,-4.75468 5.55625,-7.81383 2.18281,-3.05915 5.33796,-7.51091 7.01146,-9.89284 1.67348,-2.3819 4.10532,-5.79107 5.40407,-7.57595 1.29876,-1.78488 3.7823,-5.2693 5.51898,-7.74316 1.73669,-2.47385 4.86663,-6.87915 6.95542,-9.78958 5.91801,-8.24587 10.50359,-14.67877 13.95663,-19.57916 1.74319,-2.47385 4.91976,-6.93872 7.05904,-9.92188 2.13927,-2.98318 5.49337,-7.68615 7.45355,-10.45105 1.96018,-2.76489 7.11833,-9.96817 11.46256,-16.00729 9.21136,-12.80513 10.45224,-14.65155 10.45224,-15.55279 0,-0.74125 -1.20001,-2.99872 -3.40613,-6.40762 -1.58263,-2.44549 -3.3068,-5.23377 -7.77138,-12.56771 -1.59456,-2.61937 -4.36105,-7.08422 -6.14775,-9.92188 -4.21048,-6.68712 -11.44138,-18.40273 -16.00354,-25.92916 -1.98467,-3.27422 -4.56349,-7.44141 -5.73071,-9.26041 -1.16722,-1.81902 -3.59124,-5.74808 -5.38671,-8.73126 -1.79548,-2.98317 -4.83103,-7.92426 -6.74567,-10.9802 -1.91464,-3.05594 -4.29655,-6.92547 -5.29313,-8.59896 -0.99659,-1.67349 -3.02656,-5.00724 -4.51105,-7.40834 -1.48449,-2.40109 -3.75092,-6.09203 -5.03652,-8.20208 -4.77789,-7.84198 -11.19831,-18.10102 -16.39283,-26.19375 -5.01543,-7.81371 -7.79749,-12.4114 -7.79749,-12.88629 0,-0.26373 0.14944,-0.34212 0.4398,-0.23074 0.80835,0.31019 5.02271,2.96653 12.78937,8.06122 2.54661,1.6705 6.59474,4.22258 8.99583,5.67128 2.40109,1.44871 5.49672,3.35003 6.87917,4.22516 1.38244,0.87513 6.08541,3.75383 10.45104,6.39711 4.36562,2.64329 9.42578,5.73346 11.24479,6.86705 1.81901,1.1336 5.45041,3.37527 8.06979,4.98149 18.77257,11.51152 37.25322,22.87802 45.37604,27.90848 17.30215,10.7152 20.95655,12.97036 25.92915,16.00096 2.9832,1.81813 7.6862,4.71253 10.4511,6.43199 2.7649,1.71947 5.3948,3.23932 5.8442,3.37744 1.4883,0.45739 1.6043,0.38544 15.0578,-9.34015 14.2285,-10.28576 45.7032,-32.903 64.4261,-46.2955 5.0205,-3.59116 11.7475,-8.41587 14.9489,-10.72158 3.2015,-2.30572 11.2382,-8.07756 17.8594,-12.82631 6.6212,-4.74875 15.4914,-11.11891 19.7115,-14.1559 4.2201,-3.037 15.1738,-10.89325 24.3416,-17.45835 9.1679,-6.5651 18.1571,-13.00978 19.9761,-14.32151 14.4704,-10.43494 19.5567,-14.07308 25.7185,-18.39629 6.3096,-4.42687 8.4385,-6.01137 14.2611,-10.61405 1.6135,-1.27544 2.6183,-1.59862 2.6183,-0.84212 0,0.22805 -1.5381,2.52001 -3.418,5.09323 -1.8799,2.57322 -5.3625,7.44429 -7.7391,10.82461 -2.3765,3.38032 -8.6565,12.19094 -13.9554,19.57917 -5.2989,7.38822 -12.691,17.71938 -16.4268,22.95813 -6.2169,8.71818 -17.0202,23.79368 -20.2876,28.31042 -2.7051,3.73955 -13.4789,18.7426 -14.5033,20.19663 -0.5809,0.82456 -2.7122,3.82092 -4.7362,6.65858 -2.0239,2.83765 -4.6541,6.52859 -5.845,8.20208 -1.1908,1.67348 -4.3066,6.01927 -6.9241,9.65729 -2.6174,3.63802 -6.5885,9.17443 -8.8248,12.30312 -7.0637,9.88263 -15.0419,21.00886 -21.4388,29.89792 -5.7583,8.00185 -8.304,11.54633 -21.948,30.55937 -2.8195,3.92906 -5.9204,8.21971 -6.8908,9.53477 -3.2506,4.40505 -3.2686,4.15086 0.7498,10.56473 1.0971,1.75111 4.8116,7.76774 8.2545,13.37029 11.012,17.91944 23.2434,37.78497 27.124,44.05313 2.0721,3.347 7.3105,11.85997 11.641,18.9177 4.3305,7.05778 9.2687,15.09449 10.9737,17.85941 1.705,2.76487 4.1524,6.75348 5.4385,8.86352 1.2862,2.11007 4.1022,6.66383 6.2579,10.11949 2.1556,3.45566 4.856,7.80144 6.0009,9.6573 1.1449,1.85583 3.5464,5.69598 5.3367,8.53365 4.708,7.46237 5.0151,7.98565 5.0151,8.54592 0,1.07649 -1.9964,0.0627 -10.3699,-5.26613 -7.5902,-4.83035 -31.4386,-19.58891 -41.7531,-25.83877 -3.1287,-1.89582 -7.4149,-4.54001 -9.525,-5.876 -2.11,-1.33595 -5.5033,-3.42353 -7.5406,-4.63903 -2.0373,-1.21546 -6.9784,-4.2497 -10.9802,-6.74268 -4.0018,-2.49297 -8.3476,-5.17247 -9.6573,-5.95434 -1.3097,-0.78191 -4.9411,-3.02672 -8.0698,-4.98848 -3.1287,-1.96177 -8.0698,-5.01744 -10.9802,-6.79042 -2.9104,-1.77297 -6.8173,-4.19731 -8.6819,-5.38741 -1.8647,-1.1901 -5.4365,-3.39216 -7.9375,-4.89354 -2.501,-1.50135 -6.988,-4.25749 -9.9712,-6.12473 -9.42,-5.89633 -10.0576,-6.20538 -12.0362,-5.83419 -0.5698,0.10696 -2.42,1.25235 -4.8287,2.98949 -2.1477,1.54893 -6.5243,4.6797 -9.7257,6.95728 -3.2015,2.27758 -10.762,7.69323 -16.8011,12.03481 -6.0391,4.34158 -14.0758,10.10941 -17.85934,12.81736 -13.43416,9.61516 -14.85171,10.63113 -17.99167,12.89477 -7.15008,5.15459 -20.46353,14.71895 -25.79688,18.53242 -3.12869,2.23714 -7.11728,5.1154 -8.86354,6.39621 -1.74624,1.2808 -5.67531,4.09088 -8.73124,6.24465 -3.05594,2.15376 -7.22313,5.12965 -9.26042,6.61311 -2.03729,1.48347 -6.4426,4.65736 -9.78958,7.05313 -3.34698,2.39573 -8.7048,6.24374 -11.90625,8.5511 -17.15077,12.36095 -43.70305,31.39609 -47.22812,33.85754 -5.74261,4.00989 -22.81196,16.84751 -27.01858,20.32029 -1.76886,1.4603 -2.87934,1.91237 -2.87934,1.17218 z"
         id="path1-7" />
      <path
         style="display:inline;fill:none;fill-opacity:1;stroke:url(#linearGradient14);stroke-width:7.6035;stroke-linecap:round;stroke-dasharray:none;stroke-dashoffset:0;stroke-opacity:1"
         id="path8-0-7"
         inkscape:label="path8"
         sodipodi:type="arc"
         sodipodi:cx="431.88858"
         sodipodi:cy="462.75912"
         sodipodi:rx="165.49872"
         sodipodi:ry="165.49872"
         sodipodi:start="5.7595865"
         sodipodi:end="0.61086524"
         sodipodi:arc-type="arc"
         d="m 575.21467,380.00976 a 165.49872,165.49872 0 0 1 -7.75748,177.67553"
         sodipodi:open="true" />
      <path
         style="display:inline;fill:none;fill-opacity:1;stroke:url(#linearGradient17);stroke-width:7.6035;stroke-linecap:round;stroke-dasharray:none;stroke-dashoffset:0;stroke-opacity:1"
         id="path8-0-7-6"
         inkscape:label="path8"
         sodipodi:type="arc"
         sodipodi:cx="-432.314"
         sodipodi:cy="-462.82693"
         sodipodi:rx="165.49872"
         sodipodi:ry="165.49872"
         sodipodi:start="5.7595865"
         sodipodi:end="0.61086524"
         sodipodi:arc-type="arc"
         d="m -288.9879,-545.5763 a 165.49872,165.49872 0 0 1 -7.75748,177.67553"
         sodipodi:open="true"
         transform="scale(-1)" />
      <path
         style="display:inline;fill:none;fill-opacity:1;stroke:url(#linearGradient18);stroke-width:7.6035;stroke-linecap:round;stroke-dasharray:none;stroke-dashoffset:0;stroke-opacity:1"
         id="path8-0-7-6-2"
         inkscape:label="path8"
         sodipodi:type="arc"
         sodipodi:cx="488.56418"
         sodipodi:cy="-404.92001"
         sodipodi:rx="165.4608"
         sodipodi:ry="165.53749"
         sodipodi:start="5.7595865"
         sodipodi:end="0.61086524"
         sodipodi:arc-type="arc"
         d="m 631.85743,-487.68876 a 165.4608,165.53749 0 0 1 -7.7557,177.71715"
         sodipodi:open="true"
         transform="matrix(0.05905285,0.99825486,-0.99805989,0.06226118,0,0)" />
      <path
         style="display:inline;fill:none;fill-opacity:1;stroke:url(#linearGradient19);stroke-width:7.6035;stroke-linecap:round;stroke-dasharray:none;stroke-dashoffset:0;stroke-opacity:1"
         id="path8-0-7-6-2-7"
         inkscape:label="path8"
         sodipodi:type="arc"
         sodipodi:cx="-462.8414"
         sodipodi:cy="-432.05789"
         sodipodi:rx="165.49872"
         sodipodi:ry="165.49872"
         sodipodi:start="5.7595865"
         sodipodi:end="0.61086524"
         sodipodi:arc-type="arc"
         d="m -319.51531,-514.80726 a 165.49872,165.49872 0 0 1 -7.75748,177.67553"
         sodipodi:open="true"
         transform="matrix(0,-1,-1,0,0,0)" />
    </g>
    <text
       xml:space="preserve"
       style="font-weight:bold;font-size:264.583px;font-family:Arial;-inkscape-font-specification:'Arial Bold';text-align:start;writing-mode:lr-tb;direction:ltr;text-anchor:start;fill:url(#linearGradient4);fill-opacity:1;stroke-width:0.264583"
       x="314.40073"
       y="297.3262"
       id="text3"><tspan
         sodipodi:role="line"
         id="tspan2"
         style="font-size:264.583px;fill:url(#linearGradient4);fill-opacity:1;stroke-width:0.264583"
         x="314.40073"
         y="297.3262">JusPrin</tspan></text>
  </g>
</svg>
